<mxfile host="Electron" agent="Mozilla/5.0 (Windows NT 10.0; Win64; x64) AppleWebKit/537.36 (KHTML, like Gecko) draw.io/24.7.17 Chrome/128.0.6613.36 Electron/32.0.1 Safari/537.36" version="24.7.17">
  <diagram name="Page-1" id="9_Puil4hoDVOTeueg-zY">
    <mxGraphModel dx="627" dy="370" grid="1" gridSize="10" guides="1" tooltips="1" connect="1" arrows="1" fold="1" page="1" pageScale="1" pageWidth="850" pageHeight="1100" math="0" shadow="0">
      <root>
        <mxCell id="0" />
        <mxCell id="1" parent="0" />
        <mxCell id="qr_s4vdadRq3oYmrzW7u-8" value="" style="edgeStyle=orthogonalEdgeStyle;rounded=0;orthogonalLoop=1;jettySize=auto;html=1;" parent="1" source="qr_s4vdadRq3oYmrzW7u-1" target="qr_s4vdadRq3oYmrzW7u-7" edge="1">
          <mxGeometry relative="1" as="geometry" />
        </mxCell>
        <mxCell id="qr_s4vdadRq3oYmrzW7u-1" value="START" style="rounded=1;whiteSpace=wrap;html=1;arcSize=50;" parent="1" vertex="1">
          <mxGeometry x="400" y="20" width="80" height="40" as="geometry" />
        </mxCell>
        <mxCell id="qr_s4vdadRq3oYmrzW7u-12" value="" style="edgeStyle=orthogonalEdgeStyle;rounded=0;orthogonalLoop=1;jettySize=auto;html=1;" parent="1" source="qr_s4vdadRq3oYmrzW7u-7" target="qr_s4vdadRq3oYmrzW7u-11" edge="1">
          <mxGeometry relative="1" as="geometry" />
        </mxCell>
        <mxCell id="qr_s4vdadRq3oYmrzW7u-7" value="&quot;User Input : &quot; #รับค่าจากผู้ใช้" style="shape=parallelogram;perimeter=parallelogramPerimeter;whiteSpace=wrap;html=1;fixedSize=1;" parent="1" vertex="1">
          <mxGeometry x="345" y="90" width="190" height="40" as="geometry" />
        </mxCell>
        <mxCell id="qr_s4vdadRq3oYmrzW7u-14" value="" style="edgeStyle=orthogonalEdgeStyle;rounded=0;orthogonalLoop=1;jettySize=auto;html=1;" parent="1" source="qr_s4vdadRq3oYmrzW7u-11" target="qr_s4vdadRq3oYmrzW7u-13" edge="1">
          <mxGeometry relative="1" as="geometry" />
        </mxCell>
        <mxCell id="qr_s4vdadRq3oYmrzW7u-11" value="&quot;#ค่าจากผู้ใช้ degree Celsius = #ค่าหลังคำนวณ degree Fahrenheit&quot;" style="shape=parallelogram;perimeter=parallelogramPerimeter;whiteSpace=wrap;html=1;fixedSize=1;" parent="1" vertex="1">
          <mxGeometry x="250" y="180" width="380" height="40" as="geometry" />
        </mxCell>
        <mxCell id="qr_s4vdadRq3oYmrzW7u-13" value="END" style="rounded=1;whiteSpace=wrap;html=1;arcSize=50;" parent="1" vertex="1">
          <mxGeometry x="400" y="260" width="80" height="40" as="geometry" />
        </mxCell>
      </root>
    </mxGraphModel>
  </diagram>
</mxfile>
